<?xml version="1.0" encoding="UTF-8" standalone="no"?>
<svg
   xmlns:dc="http://purl.org/dc/elements/1.1/"
   xmlns:cc="http://creativecommons.org/ns#"
   xmlns:rdf="http://www.w3.org/1999/02/22-rdf-syntax-ns#"
   xmlns:svg="http://www.w3.org/2000/svg"
   xmlns="http://www.w3.org/2000/svg"
   xmlns:sodipodi="http://sodipodi.sourceforge.net/DTD/sodipodi-0.dtd"
   xmlns:inkscape="http://www.inkscape.org/namespaces/inkscape"
   width="12pt"
   height="15pt"
   viewBox="0 0 12 15"
   version="1.1"
   id="svg2"
   inkscape:version="0.91 r13725"
   sodipodi:docname="logo_grayscale.svg">
  <metadata
     id="metadata38">
    <rdf:RDF>
      <cc:Work
         rdf:about="">
        <dc:format>image/svg+xml</dc:format>
        <dc:type
           rdf:resource="http://purl.org/dc/dcmitype/StillImage" />
      </cc:Work>
    </rdf:RDF>
  </metadata>
  <sodipodi:namedview
     pagecolor="#ffffff"
     bordercolor="#666666"
     borderopacity="1"
     objecttolerance="10"
     gridtolerance="10"
     guidetolerance="10"
     inkscape:pageopacity="0"
     inkscape:pageshadow="2"
     inkscape:window-width="2560"
     inkscape:window-height="1377"
     id="namedview36"
     showgrid="false"
     inkscape:zoom="35.600469"
     inkscape:cx="7.1983835"
     inkscape:cy="6.2375141"
     inkscape:window-x="1920"
     inkscape:window-y="0"
     inkscape:window-maximized="1"
     inkscape:current-layer="svg2" />
  <defs
     id="defs4">
    <linearGradient
       id="linear0"
       gradientUnits="userSpaceOnUse"
       x1="0"
       y1="1"
       x2="0.835606"
       y2="0.090364"
       gradientTransform="matrix(7.664063,0,0,10.210938,4.296875,4.777344)">
      <stop
         offset="0"
         style="stop-color:rgb(6.666667%,60.784314%,24.313725%);stop-opacity:1;"
         id="stop7" />
      <stop
         offset="0.260454"
         style="stop-color:rgb(85.490196%,86.666667%,3.921569%);stop-opacity:1;"
         id="stop9" />
      <stop
         offset="0.321848"
         style="stop-color:rgb(99.215686%,87.058824%,0.784314%);stop-opacity:1;"
         id="stop11" />
      <stop
         offset="0.442038"
         style="stop-color:rgb(95.294118%,57.254902%,5.098039%);stop-opacity:1;"
         id="stop13" />
      <stop
         offset="0.721347"
         style="stop-color:rgb(89.019608%,9.411765%,20.784314%);stop-opacity:1;"
         id="stop15" />
      <stop
         offset="1"
         style="stop-color:rgb(85.098039%,0.784314%,49.019608%);stop-opacity:1;"
         id="stop17" />
    </linearGradient>
    <filter
       style="color-interpolation-filters:sRGB;"
       inkscape:label="Greyscale"
       id="filter4166">
      <feColorMatrix
         values="0.21 0.72 0.072 0 0 0.21 0.72 0.072 0 0 0.21 0.72 0.072 0 0 0 0 0 1 0 "
         id="feColorMatrix4168" />
    </filter>
  </defs>
  <g
     id="surface1"
     style="filter:url(#filter4166);opacity:0.18">
    <path
       style="stroke:none;fill-rule:evenodd;fill:url(#linear0)"
       d="M 7.132812 4.777344 C 8.414062 5.867188 10.625 7.996094 10.722656 9.804688 C 10.761719 10.464844 10.523438 11.03125 10.023438 11.484375 C 8.300781 13.042969 6.847656 12.394531 5.785156 11.917969 C 5.152344 11.632812 4.777344 11.480469 4.5 11.65625 C 4.40625 11.71875 3.945312 12.152344 4.3125 14.679688 C 4.324219 14.777344 4.28125 14.886719 4.296875 14.988281 L 8.363281 14.988281 C 10.339844 14.988281 11.960938 13.480469 11.960938 11.632812 L 11.960938 8.132812 C 11.960938 6.289062 10.339844 4.777344 8.363281 4.777344 Z M 7.132812 4.777344 "
       id="path20" />
    <path
       style="stroke:none;fill-rule:evenodd;fill:rgb(5%, 5%, 27%);fill-opacity:1"
       d="M 6.347656 8.6875 C 5.792969 9.136719 4.832031 8.96875 4.199219 8.308594 C 3.566406 7.648438 3.5 6.75 4.054688 6.300781 C 4.609375 5.851562 5.570312 6.019531 6.203125 6.679688 C 6.835938 7.339844 6.902344 8.238281 6.347656 8.6875 "
       id="path22" />
    <path
       style="stroke:none;fill-rule:evenodd;fill:rgb(100%, 100%, 100%);fill-opacity:1"
       d="M 1.910156 4.398438 C 1.96875 3.765625 2.167969 3.261719 2.5 2.898438 C 2.730469 2.644531 2.972656 2.59375 3.132812 2.59375 C 3.757812 2.59375 4.089844 3.324219 4.285156 3.875 L 4.449219 4.339844 L 3.921875 4.398438 C 3.441406 4.453125 2.976562 4.582031 2.542969 4.789062 L 1.839844 5.128906 Z M 1.910156 4.398438 "
       id="path24" />
    <path
       style="stroke:none;fill-rule:evenodd;fill:rgb(5%, 5%, 27%);fill-opacity:1"
       d="M 2.386719 4.402344 C 2.429688 3.957031 2.558594 3.476562 2.878906 3.128906 C 2.984375 3.011719 3.082031 2.964844 3.179688 2.964844 C 3.484375 2.964844 3.738281 3.46875 3.914062 3.96875 C 3.371094 4.03125 2.855469 4.179688 2.386719 4.402344 Z M 4.746094 3.71875 C 4.621094 3.363281 4.488281 3.085938 4.339844 2.863281 C 3.960938 2.28125 3.5 2.160156 3.179688 2.160156 C 2.925781 2.160156 2.550781 2.238281 2.210938 2.609375 C 1.820312 3.039062 1.585938 3.617188 1.519531 4.332031 L 1.378906 5.789062 L 2.789062 5.117188 C 3.175781 4.933594 3.589844 4.8125 4.019531 4.765625 L 5.074219 4.648438 Z M 4.746094 3.71875 "
       id="path26" />
    <path
       style="stroke:none;fill-rule:evenodd;fill:rgb(100%, 100%, 100%);fill-opacity:1"
       d="M 3.425781 14.578125 C 2.53125 14.554688 1.777344 14.246094 1.246094 13.6875 C 0.730469 13.148438 0.460938 12.414062 0.460938 11.558594 L 0.460938 7.984375 C 0.460938 6.71875 1.148438 5.535156 2.296875 4.820312 C 2.882812 4.457031 3.558594 4.234375 4.261719 4.175781 C 4.316406 4.171875 4.371094 4.167969 4.421875 4.164062 C 4.464844 4.105469 4.507812 4.042969 4.554688 3.972656 C 4.632812 3.855469 4.722656 3.726562 4.816406 3.589844 C 5.1875 3.046875 5.734375 2.269531 6.222656 1.648438 C 7.027344 0.621094 7.324219 0.433594 7.625 0.433594 C 7.710938 0.433594 7.792969 0.453125 7.867188 0.488281 C 8.265625 0.6875 8.121094 1.15625 8.007812 1.535156 C 7.902344 1.875 7.738281 2.328125 7.566406 2.804688 C 7.433594 3.171875 7.296875 3.554688 7.167969 3.925781 C 7.136719 4.015625 7.105469 4.109375 7.078125 4.199219 C 7.066406 4.234375 7.054688 4.265625 7.046875 4.296875 C 7.003906 4.429688 6.964844 4.554688 6.933594 4.667969 C 6.921875 4.699219 6.914062 4.730469 6.90625 4.757812 C 8.125 5.765625 10.496094 7.945312 10.589844 9.710938 C 10.621094 10.277344 10.417969 10.761719 9.980469 11.152344 C 9.304688 11.753906 8.621094 12.046875 7.894531 12.046875 C 7.199219 12.046875 6.574219 11.769531 6.023438 11.527344 C 5.601562 11.339844 5.164062 11.148438 4.792969 11.148438 C 4.609375 11.148438 4.453125 11.191406 4.300781 11.289062 C 4.117188 11.40625 3.683594 11.675781 3.875 14.058594 C 3.878906 14.085938 3.878906 14.113281 3.878906 14.136719 C 3.878906 14.136719 3.878906 14.140625 3.878906 14.140625 L 3.945312 14.589844 Z M 3.425781 14.578125 "
       id="path28" />
    <path
       style="stroke:none;fill-rule:evenodd;fill:rgb(5%, 5%, 27%);fill-opacity:1"
       d="M 7.605469 0 C 7.152344 0 6.824219 0.273438 6.535156 0.570312 C 6.34375 0.769531 6.117188 1.035156 5.84375 1.382812 C 5.351562 2.015625 4.800781 2.796875 4.425781 3.34375 C 4.335938 3.472656 4.25 3.601562 4.160156 3.730469 C 4.15625 3.738281 4.152344 3.742188 4.148438 3.75 C 3.390625 3.820312 2.660156 4.066406 2.03125 4.457031 C 0.757812 5.25 0 6.558594 0 7.957031 L 0 11.53125 C 0 13.523438 1.363281 14.898438 3.390625 14.953125 L 4.4375 14.953125 L 4.300781 14.089844 C 4.300781 14.066406 4.300781 14.035156 4.296875 14 C 4.21875 13.042969 4.238281 12.347656 4.347656 11.925781 C 4.417969 11.664062 4.492188 11.617188 4.53125 11.59375 C 4.609375 11.542969 4.679688 11.523438 4.773438 11.523438 C 5.042969 11.523438 5.433594 11.695312 5.8125 11.863281 C 6.40625 12.125 7.078125 12.421875 7.878906 12.421875 C 8.722656 12.421875 9.503906 12.089844 10.269531 11.414062 C 10.800781 10.9375 11.050781 10.351562 11.011719 9.664062 C 10.964844 8.785156 10.453125 7.789062 9.445312 6.617188 C 8.742188 5.800781 7.953125 5.082031 7.382812 4.597656 C 7.402344 4.527344 7.425781 4.457031 7.449219 4.382812 C 7.460938 4.351562 7.46875 4.320312 7.480469 4.289062 C 7.507812 4.203125 7.539062 4.109375 7.570312 4.015625 C 7.695312 3.648438 7.832031 3.269531 7.964844 2.90625 C 8.140625 2.421875 8.308594 1.964844 8.414062 1.613281 C 8.480469 1.398438 8.519531 1.234375 8.539062 1.101562 C 8.628906 0.464844 8.234375 0.191406 8.0625 0.105469 C 7.921875 0.0351562 7.765625 0 7.605469 0 M 8.671875 9.78125 C 8.832031 9.78125 8.960938 9.664062 8.960938 9.519531 C 8.960938 9.371094 8.832031 9.253906 8.671875 9.253906 C 8.511719 9.253906 8.382812 9.371094 8.382812 9.519531 C 8.382812 9.664062 8.511719 9.78125 8.671875 9.78125 M 3.886719 7.539062 C 3.886719 7.929688 4.066406 8.363281 4.414062 8.722656 C 4.808594 9.136719 5.335938 9.359375 5.8125 9.359375 C 6.101562 9.359375 6.371094 9.277344 6.582031 9.105469 C 6.835938 8.898438 6.960938 8.597656 6.960938 8.269531 C 6.960938 7.878906 6.785156 7.445312 6.4375 7.085938 C 6.039062 6.671875 5.511719 6.449219 5.039062 6.449219 C 4.75 6.449219 4.476562 6.53125 4.265625 6.703125 C 4.011719 6.910156 3.886719 7.210938 3.886719 7.539062 M 7.605469 0.808594 C 7.617188 0.808594 7.628906 0.8125 7.640625 0.816406 C 7.820312 0.90625 7.191406 2.414062 6.730469 3.777344 C 6.699219 3.871094 6.667969 3.964844 6.636719 4.058594 C 6.625 4.089844 6.613281 4.125 6.605469 4.15625 C 6.5625 4.285156 6.523438 4.414062 6.488281 4.535156 C 6.453125 4.652344 6.421875 4.761719 6.398438 4.871094 C 7.78125 5.988281 10.046875 8.132812 10.132812 9.703125 C 10.15625 10.15625 10 10.523438 9.652344 10.832031 C 9 11.414062 8.417969 11.613281 7.878906 11.613281 C 7.28125 11.613281 6.734375 11.371094 6.195312 11.132812 C 5.726562 10.925781 5.246094 10.714844 4.773438 10.714844 C 4.523438 10.714844 4.273438 10.773438 4.03125 10.925781 C 3.59375 11.203125 3.234375 11.761719 3.417969 14.058594 C 3.417969 14.078125 3.414062 14.128906 3.417969 14.144531 C 1.839844 14.101562 0.882812 13.054688 0.882812 11.53125 L 0.882812 7.957031 C 0.882812 6.785156 1.535156 5.742188 2.527344 5.125 C 3.035156 4.808594 3.636719 4.605469 4.28125 4.550781 C 4.390625 4.542969 4.5 4.535156 4.613281 4.535156 L 4.652344 4.535156 C 4.71875 4.4375 4.808594 4.308594 4.910156 4.15625 C 4.988281 4.042969 5.074219 3.914062 5.167969 3.777344 C 5.972656 2.613281 7.265625 0.808594 7.605469 0.808594 "
       id="path30" />
    <path
       style="stroke:none;fill-rule:evenodd;fill:rgb(100%, 100%, 100%);fill-opacity:1"
       d="M 4.765625 6.597656 C 4.550781 6.773438 4.539062 7.085938 4.742188 7.300781 C 4.949219 7.511719 5.289062 7.542969 5.507812 7.363281 C 5.726562 7.1875 5.734375 6.875 5.53125 6.660156 C 5.328125 6.449219 4.984375 6.421875 4.765625 6.597656 "
       id="path32" />
    <path
       style="stroke:none;fill-rule:evenodd;fill:rgb(100%, 100%, 100%);fill-opacity:1"
       d="M 5.128906 8.257812 C 5.035156 8.332031 5.03125 8.464844 5.117188 8.554688 C 5.203125 8.644531 5.347656 8.65625 5.441406 8.582031 C 5.53125 8.507812 5.535156 8.375 5.449219 8.285156 C 5.363281 8.195312 5.21875 8.183594 5.128906 8.257812 "
       id="path34" />
  </g>
</svg>
